PathFileType	4	(X/Y/Z)	./resultDataOpenSim/trcMotMarkerGrf/sub10/qtm-01-07.trc
DataRate	CameraRate	NumFrames	NumMarkers	Units	OrigDataRate	OrigDataStartFrame	OrigNumFrames
250.000000	250.000000	14	24	m	250.000000	233	464
Frame#	Time	L.Toe.Tip			R.Toe.Tip			L.Ankle.Lat			R.Ankle.Lat			L.Ankle.Med			R.Ankle.Med			L.Heel			R.Heel			L.Knee.Lat			R.Knee.Lat			L.Knee.Med			R.Knee.Med			L.Thigh.Upper			R.Thigh.Upper			L.ASIS			R.ASIS			V.Sacral			L.Acromium			R.Acromium			C7			L.Elbow			R.Elbow			L.Wrist.Lat			R.Wrist.Lat
		X1	Y1	Z1	X2	Y2	Z2	X3	Y3	Z3	X4	Y4	Z4	X5	Y5	Z5	X6	Y6	Z6	X7	Y7	Z7	X8	Y8	Z8	X9	Y9	Z9	X10	Y10	Z10	X11	Y11	Z11	X12	Y12	Z12	X13	Y13	Z13	X14	Y14	Z14	X15	Y15	Z15	X16	Y16	Z16	X17	Y17	Z17	X18	Y18	Z18	X19	Y19	Z19	X20	Y20	Z20	X21	Y21	Z21	X22	Y22	Z22	X23	Y23	Z23	X24	Y24	Z24

233	0.928	0.059901444	0.04254526	-0.054141771	0.073688236	0.061340231	0.11602408	-0.076165607	0.067274644	-0.081933732	-0.050529138	0.13300104	0.11187465	-0.066884965	0.093085324	0.00093568483	0.0017914025	0.14068931	0.042159238	-0.14034399	0.040125497	-0.036518544	-0.092917844	0.12069758	0.054059642	-0.015905735	0.45011668	-0.13188549	0.13189057	0.4770689	0.15114339	-0.018111676	0.4334925	-0.0089241234	0.19114263	0.47885747	0.029473056	0.03216316	0.84219049	-0.20399295	0.0024777342	0.86008526	0.1758829	0.083650365	0.95875886	-0.13035333	0.074085947	0.95977505	0.11392561	-0.11856421	0.96755893	-0.018007255	0.014543573	1.4220567	-0.15994335	-0.02601595	1.4179171	0.16657198	-0.093794652	1.4490921	-0.013167678	-0.067243609	1.0938294	-0.24151447	-0.081166945	1.0687723	0.18084824	0.049917176	0.88297561	-0.28081299	0.06475899	0.87902856	0.23747287
234	0.932	0.05988323	0.042521212	-0.054189434	0.093671831	0.060597452	0.11664278	-0.076118058	0.067376548	-0.081816386	-0.032629289	0.12839822	0.11228733	-0.066689848	0.093014375	0.0009840047	0.019372858	0.13724753	0.042555057	-0.14030509	0.040199627	-0.036371899	-0.074252134	0.11446009	0.054313882	-0.014873926	0.45007693	-0.13187822	0.14053497	0.47760376	0.15131227	-0.017047489	0.43335501	-0.0088563115	0.19950585	0.48062174	0.029045226	0.035471284	0.84158367	-0.20425381	0.0098066259	0.86076366	0.17632032	0.088340013	0.95817369	-0.13104671	0.080053767	0.96003085	0.11345972	-0.11298185	0.96756402	-0.016952017	0.020485603	1.42183	-0.15992294	-0.020425335	1.4179641	0.16658848	-0.08798293	1.4490857	-0.01321821	-0.059392294	1.0930612	-0.24219457	-0.077644712	1.0693267	0.18080645	0.060502835	0.88336261	-0.28037522	0.065610616	0.87809625	0.23876633
235	0.936	0.059866652	0.042509418	-0.054243749	0.11369822	0.059971105	0.11730948	-0.076097537	0.067471468	-0.081674151	-0.014550929	0.12385212	0.11267649	-0.066607662	0.092988661	0.001162561	0.037005751	0.13412801	0.042298836	-0.14029326	0.040314378	-0.036091093	-0.055187403	0.10835705	0.054441305	-0.013748074	0.44998781	-0.13182252	0.14903052	0.47805	0.15149178	-0.016144392	0.43316905	-0.0086475189	0.20772524	0.48222821	0.02862963	0.03877404	0.84095717	-0.2044929	0.01715221	0.8613852	0.17674545	0.093022763	0.95750506	-0.13173798	0.086471664	0.96023154	0.11260809	-0.10735433	0.96736828	-0.015605577	0.026393489	1.4215555	-0.15990514	-0.014834141	1.4179269	0.16661225	-0.082164887	1.4490274	-0.01317163	-0.05150261	1.0921813	-0.24264213	-0.074401802	1.0698308	0.18091967	0.071033614	0.88373174	-0.27990411	0.066491961	0.8771463	0.24006295
236	0.94	0.059849806	0.042505125	-0.054297736	0.13376744	0.059471765	0.11802002	-0.076101704	0.067547425	-0.081506806	0.0036729788	0.11936407	0.11307155	-0.066749624	0.093025508	0.0015472995	0.054717761	0.13115652	0.04180252	-0.1402756	0.040463593	-0.035571936	-0.035996251	0.1024926	0.054467917	-0.012534027	0.44984524	-0.13171174	0.15738387	0.47840894	0.15168213	-0.015280063	0.43292573	-0.0083419784	0.21580424	0.48367611	0.028231958	0.042075827	0.84031236	-0.20470788	0.024477606	0.86192543	0.17714096	0.09776925	0.95677983	-0.13239786	0.093363588	0.96038804	0.111403	-0.10169728	0.96696508	-0.014017823	0.032258497	1.421246	-0.15990389	-0.0092252385	1.4178116	0.16664767	-0.07631089	1.4489146	-0.013013417	-0.043536531	1.0912117	-0.2429853	-0.071192253	1.0702676	0.18112105	0.081499339	0.88408443	-0.27940691	0.067394246	0.87617648	0.24135264
237	0.944	0.059831293	0.042503251	-0.054345752	0.15388463	0.059113634	0.11876957	-0.076105347	0.067586662	-0.081312758	0.022029785	0.11492361	0.11354505	-0.06698697	0.093110977	0.0020493997	0.072600536	0.1281603	0.041535442	-0.14025666	0.040658176	-0.03484959	-0.016749063	0.096844487	0.054405255	-0.011230995	0.44964734	-0.13154624	0.16560172	0.47868187	0.15188349	-0.014125897	0.43261671	-0.0080650954	0.22375561	0.48496768	0.027848951	0.045381042	0.8396506	-0.20489641	0.031703974	0.86235255	0.17748088	0.10261336	0.95601101	-0.13301303	0.10035205	0.96048914	0.11019493	-0.09603027	0.96645265	-0.012507462	0.038081796	1.4208964	-0.15992591	-0.003563061	1.4176348	0.16669849	-0.070408757	1.4487444	-0.012895472	-0.03550202	1.0901817	-0.24332814	-0.067811291	1.0706337	0.1813951	0.091928303	0.88441773	-0.27887526	0.068306596	0.87518563	0.24263217
238	0.948	0.059815938	0.042499834	-0.054386867	0.17405126	0.058914068	0.11955055	-0.076068354	0.067575422	-0.08107669	0.040525209	0.11051847	0.11417512	-0.067055923	0.093195299	0.0024735001	0.09071835	0.12513783	0.041641837	-0.14026991	0.040897084	-0.03413222	0.0025934337	0.091334821	0.054348079	-0.0098261304	0.44939827	-0.13134229	0.17369081	0.47887011	0.15209606	-0.012520687	0.43224163	-0.0078415441	0.23159713	0.48610121	0.02747094	0.048694084	0.83897327	-0.20505616	0.038784322	0.86264931	0.17775026	0.10748216	0.95518354	-0.13361223	0.10717444	0.9604962	0.10922654	-0.090380611	0.96595278	-0.011479433	0.043880837	1.4204898	-0.15995664	0.0021814836	1.4174076	0.16676593	-0.064455436	1.4484906	-0.013028308	-0.027423282	1.0891056	-0.24369541	-0.064221622	1.0709332	0.18175424	0.10234802	0.88472391	-0.27829585	0.069225071	0.87417301	0.24389973
239	0.952	0.059816478	0.042491111	-0.054427833	0.19425387	0.058883584	0.12035288	-0.076001389	0.067529808	-0.080736521	0.059152944	0.1061705	0.11494675	-0.066858964	0.093229659	0.002731222	0.10906839	0.12217915	0.042012296	-0.14034679	0.041151049	-0.033626822	0.02203227	0.085928811	0.054432987	-0.0083036453	0.4491208	-0.13113255	0.18165788	0.47897497	0.15232001	-0.010655293	0.43180336	-0.0075293127	0.23933844	0.48707207	0.027089112	0.052019349	0.83828172	-0.20518478	0.045796709	0.86284218	0.17798308	0.11221039	0.95426377	-0.13425949	0.11382741	0.96037455	0.10850384	-0.084775628	0.96547531	-0.010976661	0.049672312	1.4200129	-0.15997757	0.0079959441	1.4171171	0.16684524	-0.058462335	1.448123	-0.01339468	-0.019330603	1.0879842	-0.24405382	-0.060577096	1.0711557	0.18212783	0.11277157	0.88500133	-0.27766201	0.070151396	0.87313658	0.24515079
240	0.956	0.059850597	0.042473714	-0.054482522	0.21446349	0.059020555	0.1211649	-0.076027293	0.067512253	-0.080184524	0.077901882	0.10195873	0.1157195	-0.066520711	0.093189064	0.0028992367	0.12758812	0.11934832	0.042485645	-0.14048998	0.041370624	-0.033379133	0.041558427	0.080650832	0.054699447	-0.0066567684	0.44886425	-0.13096759	0.18950965	0.47899775	0.15255555	-0.0087860853	0.4313007	-0.0070197746	0.24697498	0.48787258	0.026700156	0.055361233	0.83757732	-0.20527993	0.05291858	0.8629909	0.17825421	0.11670349	0.95323166	-0.13499141	0.12039426	0.96011807	0.10793418	-0.07921294	0.96496341	-0.010543902	0.055460589	1.419463	-0.15998489	0.013818749	1.4167303	0.16692681	-0.052470345	1.4476458	-0.013732403	-0.011252388	1.0868152	-0.24435008	-0.057088509	1.0712763	0.18235646	0.12320382	0.88525855	-0.27697526	0.07109601	0.87207358	0.24638213
241	0.96	0.059923707	0.042445309	-0.054555725	0.2346508	0.059317879	0.1219704	-0.076265438	0.0675854	-0.079394604	0.096786253	0.097969394	0.11635539	-0.066181185	0.093077382	0.0030914674	0.14619338	0.1166714	0.042948994	-0.14066834	0.041525366	-0.033283115	0.061196337	0.075545937	0.055082949	-0.0048958374	0.44867377	-0.13088668	0.19725286	0.47893976	0.15280285	-0.0069549767	0.43073506	-0.0063969449	0.25449734	0.48849504	0.026303287	0.058724134	0.83686145	-0.20533928	0.060209175	0.8631153	0.17858798	0.12105995	0.95210206	-0.13577097	0.12693322	0.95973848	0.10743824	-0.073683171	0.96441	-0.0097137874	0.061245516	1.4188459	-0.15998518	0.019589212	1.4162205	0.16700425	-0.046528414	1.4470962	-0.013828983	-0.0031898922	1.0856003	-0.24457797	-0.053806956	1.0712908	0.18235882	0.13365276	0.8855054	-0.27623906	0.07208573	0.870984	0.24759705
242	0.964	0.060001059	0.042405922	-0.054616708	0.25479978	0.059768486	0.12274675	-0.076625587	0.067733506	-0.078547358	0.11583217	0.094233752	0.11683662	-0.065887447	0.092928382	0.0033777623	0.16482365	0.11417626	0.043364503	-0.14082618	0.041631605	-0.033170067	0.080966346	0.070658345	0.055512022	-0.0030664321	0.44852152	-0.13084155	0.20489423	0.4788023	0.15306211	-0.0050593198	0.43012126	-0.0058193092	0.2619049	0.48894344	0.02590057	0.062112449	0.83613545	-0.20536049	0.067462043	0.86314296	0.17889341	0.12546685	0.95090964	-0.1365266	0.1334674	0.95924947	0.10698123	-0.068223711	0.96383187	-0.008449448	0.067028332	1.4181713	-0.15998401	0.025304059	1.415589	0.16708065	-0.040645313	1.4465078	-0.013696192	0.0048731503	1.0843408	-0.24477429	-0.050599539	1.07123	0.18223571	0.14412397	0.88574569	-0.27545789	0.073150996	0.86987182	0.24880079
243	0.968	0.060023353	0.042360781	-0.054616073	0.27490722	0.060364445	0.12346912	-0.076869662	0.067880874	-0.07790091	0.13504169	0.090739561	0.11722059	-0.065626726	0.092778144	0.0037705045	0.1834489	0.11191069	0.043747939	-0.14091301	0.041728799	-0.032912634	0.10085791	0.066028713	0.055953592	-0.0012722697	0.44829341	-0.1306673	0.2124405	0.47858669	0.15333351	-0.0030293106	0.42948169	-0.0053399315	0.26920208	0.48923399	0.025504081	0.065530578	0.83540071	-0.20534121	0.074424703	0.86298096	0.17905729	0.13003043	0.94968221	-0.13721557	0.140004	0.95866195	0.10656195	-0.062906233	0.96321852	-0.007019499	0.072805991	1.4174477	-0.15998403	0.031010603	1.4148618	0.16716497	-0.034784252	1.4458867	-0.013475397	0.012942543	1.0830326	-0.24496057	-0.047325351	1.0711306	0.18217477	0.15460643	0.88597579	-0.27463956	0.074293659	0.86874092	0.24998836
244	0.972	0.059977844	0.042318527	-0.054551547	0.29497578	0.061099646	0.12411386	-0.076875736	0.067990503	-0.077546615	0.15438296	0.087472524	0.11754768	-0.065370574	0.092634745	0.0042322617	0.20205022	0.1099231	0.04411558	-0.14090825	0.041843932	-0.032473861	0.12084569	0.061681466	0.056405452	0.00032962564	0.4478884	-0.13017893	0.21989837	0.47829422	0.15361723	-0.00086281972	0.4288302	-0.0049110204	0.27637457	0.48937748	0.025133003	0.068982921	0.83465858	-0.2052791	0.0811222	0.86263106	0.17908924	0.13473951	0.94842891	-0.13783586	0.14654709	0.9579815	0.10618803	-0.057745128	0.96256094	-0.0056518622	0.078570346	1.4166752	-0.15998818	0.036755068	1.4140679	0.16726315	-0.028907215	1.4452209	-0.013278335	0.021019408	1.0816778	-0.24512122	-0.043938366	1.07101	0.18230906	0.16508358	0.88618667	-0.27378586	0.075484799	0.86759312	0.25114556
245	0.976	0.059911276	0.042282499	-0.054471075	0.3150054	0.061975145	0.12465551	-0.076708093	0.068085875	-0.077372925	0.17380104	0.084423769	0.11781814	-0.065112492	0.092495269	0.0047358986	0.22061827	0.1082262	0.044451694	-0.1408071	0.041986031	-0.031857123	0.14090282	0.057614484	0.056897341	0.001596894	0.44731051	-0.12929764	0.2272746	0.47792621	0.15391347	0.0014187392	0.42817005	-0.0044866057	0.28338383	0.48936977	0.024800275	0.072473869	0.83391044	-0.20517183	0.087850409	0.86219332	0.17912658	0.13951995	0.94714304	-0.13840409	0.15309955	0.95720857	0.10585968	-0.052578786	0.9618686	-0.0043578299	0.084317163	1.415848	-0.16000098	0.042557833	1.4132202	0.16737088	-0.023005392	1.4444993	-0.013128725	0.029121855	1.0803035	-0.24521113	-0.040454265	1.0708676	0.18266183	0.17555594	0.88637559	-0.27288548	0.076722338	0.86643471	0.25227306
246	0.98	0.059852984	0.042246948	-0.05439535	0.33498807	0.062995974	0.12506402	-0.076491384	0.068191847	-0.077206791	0.1932443	0.081574795	0.11800819	-0.064874487	0.092377032	0.0052946451	0.239159	0.10678353	0.044728272	-0.14061849	0.042156256	-0.031092271	0.16099833	0.05381185	0.057482675	0.0025814983	0.44664763	-0.12812543	0.23457591	0.47748398	0.15422241	0.0037941854	0.42750584	-0.0040657827	0.29019751	0.48920227	0.024511241	0.076007798	0.83315764	-0.20501708	0.094908192	0.86177175	0.17931445	0.14429891	0.94581678	-0.1389368	0.15966307	0.95634412	0.105573	-0.047092066	0.9611525	-0.0029403384	0.090049827	1.4149649	-0.16002697	0.048427115	1.4123152	0.16747536	-0.017089898	1.4437186	-0.013002029	0.03728044	1.0789545	-0.24517407	-0.036907339	1.0706932	0.18315478	0.18603455	0.88655537	-0.27193048	0.07806824	0.86527925	0.25340117
